<svg xmlns="http://www.w3.org/2000/svg" viewBox="0 0 512 512">
  <defs><linearGradient id="royal" x1="70" y1="60" x2="445" y2="450" gradientUnits="userSpaceOnUse"><stop stop-color="#fff6a6"/><stop offset=".42" stop-color="#ffc933"/><stop offset=".72" stop-color="#ff8a2b"/><stop offset="1" stop-color="#ffe787"/></linearGradient></defs>
  <circle cx="256" cy="256" r="246" fill="none" stroke="#ffb52b" stroke-opacity=".32" stroke-width="24"/>
  <circle cx="256" cy="256" r="246" fill="none" stroke="url(#royal)" stroke-width="10"/>
  <path d="M207 26l16 8 33-28 33 28 16-8 8 32H199z" fill="url(#royal)" stroke="#fff2a1" stroke-width="4"/>
  <g fill="#fff7bd" stroke="#ffb52b" stroke-width="2"><circle cx="256" cy="8" r="7"/><circle cx="207" cy="26" r="6"/><circle cx="305" cy="26" r="6"/></g>
  <g fill="#fff"><path d="M67 344l4 12 12 4-12 4-4 12-4-12-12-4 12-4z"/><path d="M445 344l4 12 12 4-12 4-4 12-4-12-12-4 12-4z"/></g>
</svg>
